<svg width="101" height="29" xmlns="http://www.w3.org/2000/svg"><g transform="translate(-4 -4)" fill-rule="nonzero" fill="none"><path d="M42.798 19.336h-2.125l-.865 4.104h-2.424l2.359-11.074h4.566c1.862 0 3.132 1.302 3.132 2.797 0 2.973-2.367 4.173-4.643 4.173zm.3-5.349h-1.296l-.798 3.721h.832c1.628 0 3.12-.364 3.12-2.309.012-.883-.912-1.416-1.859-1.416v.004zM55.504 20.478c-.228.97-.361 1.96-.398 2.957h-2.343c.034-.416.182-1.196.317-1.96-.598 1.079-1.574 2.142-3.206 2.142-1.677 0-2.525-1.124-2.525-2.657 0-3.737 3.339-6.046 6.52-6.046.963 0 2.208.166 2.79.382l-1.155 5.182zm-2.075-4.02c-1.912 0-3.654 2.024-3.654 4.252 0 .749.265 1.362 1.124 1.362 1.163 0 2.276-1.594 2.74-3.597l.45-1.927c-.212-.07-.436-.1-.66-.09zM64.722 22.322c-.748 3.355-1.976 4.884-5.663 4.884a9.19 9.19 0 01-2.89-.466l.45-1.643c.738.384 1.56.578 2.392.564 2.076 0 2.874-1.095 3.256-2.655l.265-1.098c-.798 1.064-1.628 1.53-3.006 1.53-1.71 0-2.54-1.064-2.54-2.474 0-3.753 3.42-6.028 6.61-6.028.911.003 1.818.125 2.698.364l-1.572 7.022zm-1.628-5.846c-1.91 0-3.687 1.96-3.687 4.286 0 .748.265 1.295 1.08 1.295 1.562 0 2.425-1.992 2.774-3.47l.481-2.01a2.16 2.16 0 00-.648-.103v.002zM73.574 17.704c1.196.265 1.96 1.03 1.96 2.192 0 2.858-2.724 3.539-5.015 3.539h-4.104l2.359-11.069h4.436c1.477 0 3.071.675 3.071 2.325 0 1.65-1.095 2.714-2.707 3.013zm-2.723.764h-1.047l-.747 3.488h1.147c1.394 0 2.84-.432 2.84-2.143 0-1.151-1.295-1.345-2.193-1.345zm1.295-4.634h-1.378l-.674 3.173h1.18c1.295 0 2.557-.5 2.557-1.976.009-.931-.92-1.197-1.685-1.197zM84.686 20.478c-.228.97-.361 1.96-.398 2.957h-2.343c.034-.416.182-1.196.315-1.96-.596 1.079-1.574 2.142-3.204 2.142-1.678 0-2.525-1.124-2.525-2.657 0-3.737 3.339-6.046 6.52-6.046.962 0 2.208.166 2.79.382l-1.155 5.182zm-2.076-4.02c-1.91 0-3.653 2.024-3.653 4.252 0 .749.265 1.362 1.124 1.362 1.162 0 2.275-1.594 2.74-3.597l.45-1.927c-.212-.07-.437-.1-.66-.09zM94.684 17.92l-1.15 5.515H91.24l1.048-5.016a4.13 4.13 0 00.132-.864c0-.631-.299-1.081-1.097-1.081-1.246 0-1.844 1.113-2.075 2.194l-1.014 4.767h-2.318l1.36-6.478c.138-.614.244-1.236.317-1.861h2.158l-.25 1.48c.799-1.114 1.629-1.644 3.007-1.644 1.378 0 2.275.674 2.275 2.041a4.928 4.928 0 01-.099.947zM100.697 18.887l2.623 4.55h-2.623l-2.26-4.37-.9 4.368h-2.304l2.525-11.968h2.296l-1.478 7.073 3.57-3.438h2.699z" fill="#231F20"/><circle fill="#010101" transform="rotate(-22.5 18.563 18.456)" cx="18.563" cy="18.456" r="14.066"/><circle fill="#010101" transform="rotate(-67.5 18.565 18.458)" cx="18.565" cy="18.458" r="13.187"/><circle fill="#DDE460" cx="18.563" cy="16.55" r="11.696"/><path d="M18.563 28.555c-6.706 0-12.142-5.436-12.142-12.142 0-6.705 5.436-12.141 12.142-12.141 6.705 0 12.141 5.436 12.141 12.141 0 6.706-5.436 12.142-12.141 12.142zm0-23.384A11.258 11.258 0 1029.82 16.413c-.003-6.216-5.04-11.256-11.257-11.262v.02z" fill="#010101"/><circle fill="#A7DCDA" cx="16.604" cy="21.906" r="9.709"/><path d="M16.625 32.058c-.722 0-1.442-.075-2.148-.225-5.48-1.176-8.969-6.57-7.794-12.051 1.174-5.48 6.569-8.97 12.049-7.797 5.48 1.174 8.972 6.568 7.799 12.048a10.156 10.156 0 01-9.893 8.025h-.013zm-.023-19.422a9.27 9.27 0 109.066 11.213 9.272 9.272 0 00-9.066-11.213z" fill="#010101"/><circle fill="#F6DF3F" cx="25.085" cy="22.315" r="6.023"/><path d="M25.085 28.78a6.464 6.464 0 116.464-6.465 6.47 6.47 0 01-6.464 6.464zm0-12.047a5.585 5.585 0 10-.004 11.17 5.585 5.585 0 00.004-11.17z" fill="#010101"/></g></svg>